<?xml version="1.0" standalone="no"?>
<!DOCTYPE svg PUBLIC "-//W3C//DTD SVG 20010904//EN"
 "http://www.w3.org/TR/2001/REC-SVG-20010904/DTD/svg10.dtd">
<svg version="1.0" xmlns="http://www.w3.org/2000/svg"
 width="137.000000pt" height="137.000000pt" viewBox="0 0 137.000000 137.000000"
 preserveAspectRatio="xMidYMid meet">
<metadata>
Created by potrace 1.11, written by Peter Selinger 2001-2013
</metadata>
<g transform="translate(0.000000,137.000000) scale(0.100000,-0.100000)"
fill="#000000" stroke="none">
<path d="M606 1312 c-2 -1 -16 -5 -32 -8 -219 -38 -402 -189 -477 -391 -34
-91 -39 -115 -43 -203 -5 -136 29 -260 100 -365 79 -115 194 -205 321 -250
100 -36 273 -41 375 -10 211 64 378 237 436 450 18 68 26 245 10 245 -5 0 -7
3 -4 6 10 9 -22 115 -54 178 -91 182 -261 307 -463 342 -42 7 -164 12 -169 6z"/>
</g>
</svg>
